<?xml version="1.0" encoding="iso-8859-1"?>
<!-- Generator: Adobe Illustrator 18.1.1, SVG Export Plug-In . SVG Version: 6.00 Build 0)  -->
<svg version="1.1" xmlns="http://www.w3.org/2000/svg" xmlns:xlink="http://www.w3.org/1999/xlink" x="0px" y="0px"
	 viewBox="0 0 595.28 260.79" style="enable-background:new 0 0 595.28 260.79;" xml:space="preserve">
<g id="ESIEA">
	<g>
		<g>
			<defs>
				<rect id="SVGID_25_" y="4" width="595.28" height="248.458"/>
			</defs>
			<clipPath id="SVGID_26_">
				<use xlink:href="#SVGID_25_"  style="overflow:visible;"/>
			</clipPath>
			<polygon style="clip-path:url(#SVGID_26_);" points="173.221,211.375 156.257,211.375 156.257,183.426 173.221,183.426 
				173.221,185.305 158.385,185.305 158.385,196.345 171.016,196.345 171.016,198.226 158.385,198.226 158.385,209.497 
				173.221,209.497 			"/>
			<g style="clip-path:url(#SVGID_26_);">
				<defs>
					<rect id="SVGID_27_" x="-66.357" y="-62.588" width="727.808" height="377.775"/>
				</defs>
				<clipPath id="SVGID_28_">
					<use xlink:href="#SVGID_27_"  style="overflow:visible;"/>
				</clipPath>
				<path style="clip-path:url(#SVGID_28_);" d="M200.663,203.438c-0.307,1.687-0.894,3.144-1.764,4.371
					c-0.869,1.226-1.97,2.165-3.306,2.817c-1.335,0.652-2.808,0.977-4.418,0.977c-1.328,0-2.601-0.25-3.815-0.747
					c-1.214-0.499-2.274-1.201-3.182-2.108c-0.831-0.831-1.424-1.707-1.782-2.628c-0.359-0.918-0.583-1.973-0.672-3.161
					c-0.089-1.189-0.133-3.041-0.133-5.559c0-2.518,0.044-4.371,0.133-5.559c0.089-1.188,0.313-2.242,0.672-3.164
					c0.359-0.918,0.952-1.795,1.782-2.625c0.908-0.908,1.966-1.611,3.173-2.109s2.482-0.747,3.824-0.747
					c1.636,0,3.119,0.327,4.447,0.979c1.328,0.651,2.426,1.587,3.288,2.807c0.862,1.221,1.447,2.681,1.754,4.382h-2.147
					c-0.409-1.944-1.268-3.477-2.578-4.601c-1.309-1.126-2.898-1.687-4.763-1.687c-0.997,0-1.952,0.179-2.866,0.537
					c-0.914,0.357-1.728,0.894-2.444,1.608c-0.498,0.499-0.885,1.017-1.159,1.554c-0.275,0.536-0.49,1.214-0.643,2.031
					c-0.153,0.819-0.25,1.752-0.287,2.799c-0.038,1.049-0.057,2.314-0.057,3.796c0,2.211,0.045,3.895,0.135,5.051
					c0.089,1.156,0.287,2.138,0.595,2.943c0.306,0.803,0.778,1.527,1.418,2.165c0.704,0.702,1.515,1.239,2.435,1.61
					c0.92,0.371,1.878,0.555,2.875,0.555c1.239,0,2.368-0.251,3.383-0.757c1.017-0.505,1.879-1.239,2.587-2.205
					c0.71-0.964,1.192-2.073,1.448-3.326H200.663z"/>
				<path style="clip-path:url(#SVGID_28_);" d="M228.968,197.401c0,2.518-0.045,4.371-0.133,5.559
					c-0.091,1.188-0.315,2.242-0.672,3.162c-0.357,0.92-0.952,1.796-1.782,2.627c-0.908,0.908-1.966,1.608-3.172,2.109
					c-1.209,0.498-2.477,0.747-3.807,0.747c-1.329,0-2.6-0.25-3.815-0.747c-1.214-0.501-2.274-1.201-3.182-2.109
					c-0.829-0.831-1.424-1.707-1.781-2.627c-0.359-0.92-0.583-1.975-0.672-3.162c-0.089-1.188-0.135-3.041-0.135-5.559
					c0-2.518,0.045-4.371,0.135-5.559c0.089-1.188,0.313-2.242,0.672-3.164c0.357-0.918,0.952-1.795,1.781-2.625
					c0.908-0.908,1.966-1.61,3.173-2.109c1.207-0.498,2.483-0.747,3.824-0.747c1.344,0,2.615,0.25,3.816,0.747
					c1.2,0.499,2.255,1.201,3.162,2.109c0.831,0.831,1.425,1.707,1.782,2.625c0.357,0.921,0.581,1.976,0.672,3.164
					C228.922,193.029,228.968,194.883,228.968,197.401 M226.84,197.401c0-2.211-0.045-3.898-0.133-5.061
					c-0.089-1.162-0.287-2.144-0.593-2.941c-0.307-0.799-0.787-1.524-1.437-2.177c-0.714-0.714-1.522-1.251-2.421-1.608
					c-0.9-0.357-1.854-0.537-2.863-0.537c-0.996,0-1.949,0.18-2.861,0.537c-0.914,0.357-1.726,0.894-2.441,1.608
					c-0.498,0.501-0.884,1.017-1.159,1.554c-0.274,0.536-0.489,1.215-0.642,2.032c-0.153,0.819-0.248,1.751-0.286,2.798
					c-0.039,1.05-0.057,2.315-0.057,3.796c0,2.211,0.044,3.895,0.133,5.051c0.089,1.158,0.287,2.138,0.593,2.943
					c0.307,0.803,0.779,1.527,1.418,2.165c0.702,0.704,1.512,1.239,2.432,1.61c0.918,0.371,1.875,0.557,2.87,0.557
					c1.009,0,1.966-0.186,2.872-0.557c0.906-0.371,1.71-0.906,2.412-1.61c0.664-0.664,1.145-1.392,1.445-2.183
					c0.301-0.794,0.496-1.767,0.586-2.925C226.795,201.295,226.84,199.611,226.84,197.401"/>
				<polygon style="clip-path:url(#SVGID_28_);" points="256.411,211.375 239.447,211.375 239.447,183.426 241.575,183.426 
					241.575,209.497 256.411,209.497 				"/>
				<polygon style="clip-path:url(#SVGID_28_);" points="281.802,211.375 264.839,211.375 264.839,183.426 281.802,183.426 
					281.802,185.305 266.966,185.305 266.966,196.345 279.598,196.345 279.598,198.226 266.966,198.226 266.966,209.497 
					281.802,209.497 				"/>
				<path style="clip-path:url(#SVGID_28_);" d="M323.306,196.999v0.918c0,2.454-0.169,4.601-0.507,6.441
					c-0.339,1.84-1.077,3.329-2.215,4.467c-0.549,0.551-1.182,1.012-1.897,1.389c-0.716,0.377-1.498,0.666-2.348,0.864
					c-0.849,0.198-1.76,0.297-2.731,0.297h-9.392v-27.949h9.392c0.971,0,1.882,0.1,2.731,0.298c0.85,0.197,1.63,0.483,2.339,0.852
					c0.708,0.371,1.345,0.838,1.907,1.4c1.151,1.138,1.891,2.534,2.224,4.188c0.331,1.655,0.498,3.647,0.498,5.972V196.999z
					 M321.179,196.999v-1.17c0-1.969-0.127-3.633-0.383-4.993c-0.256-1.362-0.825-2.483-1.707-3.365
					c-1.392-1.444-3.392-2.167-6-2.167h-6.747v24.193h6.747c2.607,0,4.607-0.723,6-2.167c0.882-0.882,1.451-2.087,1.707-3.615
					c0.256-1.525,0.383-3.356,0.383-5.49V196.999z"/>
				<polygon style="clip-path:url(#SVGID_28_);" points="335.951,186.168 333.209,188.928 333.209,183.426 335.951,183.426 				"/>
				<rect x="346.928" y="183.427" style="clip-path:url(#SVGID_28_);" width="2.127" height="27.949"/>
				<polygon style="clip-path:url(#SVGID_28_);" points="381.002,211.375 378.875,211.375 362.752,187.07 362.752,211.375 
					360.625,211.375 360.625,183.426 362.752,183.426 378.875,207.636 378.875,183.426 381.002,183.426 				"/>
				<path style="clip-path:url(#SVGID_28_);" d="M410.668,201.637c0,2.889-0.754,5.139-2.262,6.747
					c-0.92,1.023-2.018,1.814-3.297,2.377s-2.625,0.844-4.045,0.844c-1.33,0-2.6-0.25-3.815-0.747
					c-1.215-0.499-2.274-1.201-3.182-2.109c-0.832-0.831-1.425-1.707-1.782-2.627c-0.359-0.92-0.581-1.975-0.672-3.162
					c-0.088-1.188-0.135-3.041-0.135-5.559s0.047-4.37,0.135-5.559c0.091-1.188,0.313-2.242,0.672-3.162
					c0.357-0.92,0.95-1.796,1.782-2.627c0.908-0.906,1.964-1.61,3.172-2.108c1.209-0.498,2.483-0.749,3.825-0.749
					c2.453,0,4.548,0.746,6.287,2.235c1.737,1.487,2.817,3.467,3.24,5.933h-2.127c-0.256-1.253-0.737-2.362-1.445-3.326
					c-0.708-0.965-1.569-1.699-2.584-2.205c-1.015-0.505-2.141-0.757-3.38-0.757c-0.996,0-1.949,0.179-2.861,0.536
					c-0.912,0.359-1.726,0.894-2.441,1.61c-0.498,0.499-0.884,1.017-1.158,1.552c-0.275,0.537-0.489,1.215-0.642,2.032
					c-0.153,0.819-0.25,1.751-0.288,2.798c-0.039,1.05-0.057,2.315-0.057,3.796c0,2.211,0.045,3.895,0.133,5.051
					c0.089,1.158,0.288,2.138,0.595,2.943c0.306,0.805,0.779,1.527,1.416,2.165c0.701,0.704,1.513,1.239,2.432,1.611
					c0.918,0.371,1.875,0.555,2.87,0.555c1.124,0,2.194-0.233,3.208-0.699c1.015-0.468,1.879-1.135,2.593-2.003
					c0.601-0.741,1.03-1.546,1.292-2.415c0.262-0.869,0.393-1.911,0.393-3.126v-2.51h-7.487v-1.879h9.614V201.637z"/>
				<polygon style="clip-path:url(#SVGID_28_);" points="438.035,211.375 421.07,211.375 421.07,183.426 438.035,183.426 
					438.035,185.305 423.197,185.305 423.197,196.345 435.83,196.345 435.83,198.226 423.197,198.226 423.197,209.497 
					438.035,209.497 				"/>
				<polygon style="clip-path:url(#SVGID_28_);" points="467.872,211.375 465.744,211.375 449.622,187.07 449.622,211.375 
					447.495,211.375 447.495,183.426 449.622,183.426 465.744,207.636 465.744,183.426 467.872,183.426 				"/>
				<rect x="479.443" y="183.427" style="clip-path:url(#SVGID_28_);" width="2.127" height="27.949"/>
				<polygon style="clip-path:url(#SVGID_28_);" points="510.106,211.375 493.141,211.375 493.141,183.426 510.106,183.426 
					510.106,185.305 495.268,185.305 495.268,196.345 507.901,196.345 507.901,198.226 495.268,198.226 495.268,209.497 
					510.106,209.497 				"/>
				<path style="clip-path:url(#SVGID_28_);" d="M538.334,202.308c0,1.79-0.407,3.392-1.22,4.812
					c-0.811,1.418-1.943,2.521-3.395,3.306c-1.453,0.787-3.106,1.18-4.96,1.18c-1.841,0-3.495-0.393-4.96-1.18
					c-1.465-0.785-2.603-1.888-3.415-3.306c-0.813-1.419-1.22-3.022-1.22-4.812v-18.882h2.127v18.613
					c0,1.534,0.31,2.879,0.931,4.035c0.619,1.158,1.495,2.055,2.631,2.695c1.136,0.637,2.438,0.956,3.905,0.956
					c1.442,0,2.734-0.319,3.877-0.956c1.142-0.64,2.023-1.537,2.642-2.695c0.62-1.156,0.929-2.501,0.929-4.035v-18.613h2.127
					V202.308z"/>
				<path style="clip-path:url(#SVGID_28_);" d="M568.479,211.375h-2.472l-6.671-12.881h-7.687v12.881h-2.127v-27.949h10.639
					c1.546,0,2.923,0.292,4.131,0.873c1.209,0.581,2.158,1.437,2.848,2.568c0.69,1.132,1.033,2.483,1.033,4.055
					c0,2.044-0.572,3.725-1.716,5.042c-1.142,1.316-2.718,2.147-4.725,2.491L568.479,211.375z M566.044,190.96
					c0-1.854-0.558-3.258-1.677-4.217c-1.12-0.958-2.61-1.437-4.476-1.437h-8.243v11.309h8.243c0.906,0,1.737-0.118,2.491-0.354
					c0.755-0.236,1.4-0.586,1.937-1.044c0.537-0.46,0.958-1.049,1.265-1.764C565.89,192.736,566.044,191.905,566.044,190.96"/>
				<path style="clip-path:url(#SVGID_28_);" d="M594.674,203.88c0,1.15-0.215,2.208-0.642,3.173
					c-0.428,0.964-1.047,1.781-1.86,2.453c-0.811,0.67-1.808,1.188-2.99,1.552c-1.182,0.363-2.489,0.546-3.92,0.546
					c-1.33,0-2.542-0.127-3.642-0.383c-1.1-0.256-2.109-0.658-3.029-1.207c-0.918-0.551-1.801-1.247-2.645-2.09l1.495-1.495
					c0.843,0.843,1.654,1.504,2.433,1.984c0.776,0.48,1.613,0.817,2.507,1.015c0.893,0.198,1.888,0.297,2.987,0.297
					c1.466,0,2.736-0.225,3.809-0.679c1.073-0.454,1.902-1.118,2.489-1.993c0.587-0.876,0.881-1.908,0.881-3.096
					c0-1.713-0.51-3.023-1.531-3.931c-0.472-0.407-0.996-0.717-1.569-0.929c-0.575-0.212-1.398-0.399-2.469-0.566l-3.255-0.498
					c-2.12-0.319-3.778-1.003-4.978-2.052c-1.469-1.226-2.203-2.938-2.203-5.137c0-1.176,0.207-2.239,0.623-3.193
					c0.413-0.952,0.991-1.757,1.733-2.413c0.74-0.66,1.654-1.164,2.739-1.515c1.086-0.353,2.28-0.528,3.582-0.528
					c1.699,0,3.161,0.239,4.386,0.72c1.227,0.478,2.447,1.242,3.659,2.289l-1.386,1.38c-0.982-0.882-1.975-1.533-2.975-1.955
					c-1.003-0.422-2.27-0.632-3.801-0.632c-2.017,0-3.6,0.517-4.748,1.552c-1.148,1.035-1.723,2.441-1.723,4.217
					c0,1.624,0.48,2.837,1.437,3.642c0.522,0.424,1.164,0.79,1.923,1.103c0.76,0.313,1.509,0.521,2.25,0.623l3.005,0.478
					c1.292,0.192,2.303,0.422,3.034,0.69c0.729,0.269,1.381,0.652,1.958,1.15c0.793,0.654,1.397,1.442,1.814,2.368
					C594.466,201.75,594.674,202.768,594.674,203.88"/>
				<path style="clip-path:url(#SVGID_28_);" d="M173.447,237.945v0.846c0,2.255-0.156,4.228-0.466,5.918
					c-0.312,1.692-0.99,3.06-2.035,4.105c-0.504,0.504-1.086,0.931-1.743,1.276c-0.658,0.346-1.377,0.611-2.158,0.793
					c-0.781,0.183-1.618,0.272-2.51,0.272h-8.629v-25.679h8.629c0.893,0,1.729,0.091,2.51,0.272
					c0.781,0.183,1.496,0.443,2.149,0.784c0.652,0.342,1.236,0.77,1.752,1.288c1.058,1.044,1.739,2.327,2.044,3.848
					c0.304,1.519,0.457,3.349,0.457,5.487V237.945z M171.492,237.945v-1.074c0-1.807-0.118-3.336-0.351-4.588
					c-0.236-1.25-0.758-2.28-1.569-3.091c-1.28-1.327-3.117-1.991-5.512-1.991h-6.199v22.229h6.199c2.395,0,4.232-0.664,5.512-1.991
					c0.811-0.81,1.333-1.916,1.569-3.32c0.233-1.403,0.351-3.085,0.351-5.046V237.945z"/>
				<path style="clip-path:url(#SVGID_28_);" d="M200.317,242.824c0,1.645-0.374,3.119-1.12,4.421
					c-0.746,1.303-1.785,2.315-3.12,3.038c-1.335,0.722-2.854,1.083-4.558,1.083c-1.693,0-3.212-0.362-4.557-1.083
					c-1.347-0.723-2.392-1.736-3.138-3.038c-0.747-1.303-1.12-2.777-1.12-4.421v-17.349h1.955v17.103
					c0,1.41,0.284,2.645,0.853,3.707c0.569,1.064,1.375,1.888,2.418,2.475c1.044,0.587,2.239,0.881,3.589,0.881
					c1.326,0,2.512-0.294,3.562-0.881c1.049-0.587,1.858-1.412,2.427-2.475c0.569-1.062,0.853-2.297,0.853-3.707v-17.103h1.955
					V242.824z"/>
				<polygon style="clip-path:url(#SVGID_28_);" points="244.071,251.155 242.116,251.155 242.116,229.985 234.331,247.543 
					232.376,247.543 224.451,229.985 224.451,251.155 222.496,251.155 222.496,225.474 224.451,225.474 233.398,245.272 
					242.116,225.474 244.071,225.474 				"/>
				<path style="clip-path:url(#SVGID_28_);" d="M271.293,238.315c0,2.312-0.041,4.014-0.124,5.107
					c-0.082,1.092-0.286,2.061-0.616,2.907c-0.328,0.844-0.875,1.651-1.637,2.413c-0.835,0.832-1.807,1.478-2.916,1.937
					c-1.109,0.458-2.274,0.687-3.497,0.687c-1.221,0-2.389-0.228-3.504-0.687c-1.115-0.458-2.09-1.105-2.923-1.937
					c-0.764-0.763-1.309-1.569-1.639-2.413c-0.328-0.846-0.534-1.814-0.616-2.907c-0.083-1.092-0.123-2.795-0.123-5.107
					c0-2.314,0.039-4.016,0.123-5.108c0.082-1.092,0.287-2.061,0.616-2.907c0.33-0.844,0.875-1.649,1.639-2.413
					c0.834-0.832,1.805-1.478,2.916-1.937c1.109-0.458,2.28-0.687,3.512-0.687c1.233,0,2.401,0.228,3.506,0.687
					c1.103,0.458,2.071,1.105,2.907,1.937c0.763,0.764,1.309,1.569,1.637,2.413c0.33,0.846,0.534,1.814,0.616,2.907
					C271.252,234.3,271.293,236.002,271.293,238.315 M269.338,238.315c0-2.032-0.041-3.582-0.124-4.65
					c-0.082-1.068-0.263-1.97-0.545-2.704s-0.72-1.4-1.318-2c-0.658-0.657-1.4-1.148-2.226-1.478
					c-0.828-0.328-1.704-0.493-2.63-0.493c-0.915,0-1.792,0.165-2.63,0.493c-0.838,0.33-1.587,0.822-2.242,1.478
					c-0.457,0.458-0.813,0.935-1.065,1.428c-0.251,0.493-0.448,1.115-0.589,1.866c-0.141,0.752-0.228,1.61-0.263,2.572
					c-0.036,0.962-0.053,2.126-0.053,3.488c0,2.032,0.041,3.577,0.123,4.639c0.082,1.065,0.263,1.964,0.545,2.705
					c0.281,0.74,0.716,1.403,1.303,1.99c0.645,0.646,1.389,1.139,2.233,1.478c0.844,0.342,1.723,0.511,2.639,0.511
					c0.926,0,1.805-0.169,2.639-0.511c0.832-0.339,1.571-0.832,2.217-1.478c0.608-0.61,1.052-1.28,1.327-2.008
					c0.275-0.728,0.454-1.622,0.536-2.687C269.297,241.892,269.338,240.348,269.338,238.315"/>
				<polygon style="clip-path:url(#SVGID_28_);" points="299.643,251.155 297.688,251.155 282.874,228.821 282.874,251.155 
					280.919,251.155 280.919,225.474 282.874,225.474 297.688,247.72 297.688,225.474 299.643,225.474 				"/>
				<path style="clip-path:url(#SVGID_28_);" d="M327.816,237.945v0.846c0,2.255-0.156,4.228-0.466,5.918
					c-0.312,1.692-0.99,3.06-2.035,4.105c-0.504,0.504-1.086,0.931-1.743,1.276c-0.658,0.346-1.377,0.611-2.158,0.793
					c-0.781,0.183-1.617,0.272-2.51,0.272h-8.629v-25.679h8.629c0.893,0,1.729,0.091,2.51,0.272
					c0.781,0.183,1.496,0.443,2.149,0.784c0.652,0.342,1.236,0.77,1.752,1.288c1.058,1.044,1.739,2.327,2.044,3.848
					c0.304,1.519,0.457,3.349,0.457,5.487V237.945z M325.861,237.945v-1.074c0-1.807-0.118-3.336-0.351-4.588
					c-0.236-1.25-0.758-2.28-1.569-3.091c-1.28-1.327-3.117-1.991-5.512-1.991h-6.199v22.229h6.199c2.395,0,4.232-0.664,5.512-1.991
					c0.811-0.81,1.333-1.916,1.569-3.32c0.233-1.403,0.351-3.085,0.351-5.046V237.945z"/>
				<polygon style="clip-path:url(#SVGID_28_);" points="353.032,251.155 337.443,251.155 337.443,225.474 353.032,225.474 
					353.032,227.201 339.398,227.201 339.398,237.346 351.006,237.346 351.006,239.072 339.398,239.072 339.398,249.428 
					353.032,249.428 				"/>
				<polygon style="clip-path:url(#SVGID_28_);" points="392.346,251.155 390.391,251.155 375.579,228.821 375.579,251.155 
					373.624,251.155 373.624,225.474 375.579,225.474 390.391,247.72 390.391,225.474 392.346,225.474 				"/>
				<path style="clip-path:url(#SVGID_28_);" d="M420.219,242.824c0,1.645-0.372,3.119-1.12,4.421
					c-0.746,1.303-1.787,2.315-3.122,3.038c-1.333,0.722-2.852,1.083-4.556,1.083c-1.693,0-3.212-0.362-4.557-1.083
					c-1.347-0.723-2.392-1.736-3.138-3.038c-0.747-1.303-1.12-2.777-1.12-4.421v-17.349h1.955v17.103
					c0,1.41,0.284,2.645,0.853,3.707c0.569,1.064,1.374,1.888,2.418,2.475c1.044,0.587,2.241,0.881,3.589,0.881
					c1.326,0,2.513-0.294,3.562-0.881c1.049-0.587,1.86-1.412,2.429-2.475c0.567-1.062,0.852-2.297,0.852-3.707v-17.103h1.955
					V242.824z"/>
				<polygon style="clip-path:url(#SVGID_28_);" points="452.074,251.155 450.119,251.155 450.119,229.985 442.334,247.543 
					440.379,247.543 432.454,229.985 432.454,251.155 430.499,251.155 430.499,225.474 432.454,225.474 441.401,245.272 
					450.119,225.474 452.074,225.474 				"/>
				<polygon style="clip-path:url(#SVGID_28_);" points="478.294,251.155 462.706,251.155 462.706,225.474 478.294,225.474 
					478.294,227.201 464.66,227.201 464.66,237.346 476.268,237.346 476.268,239.072 464.66,239.072 464.66,249.428 
					478.294,249.428 				"/>
				<path style="clip-path:url(#SVGID_28_);" d="M504.406,251.154h-2.271l-6.13-11.836h-7.063v11.836h-1.955v-25.679h9.775
					c1.421,0,2.686,0.268,3.796,0.802c1.109,0.534,1.981,1.321,2.615,2.36c0.634,1.038,0.952,2.279,0.952,3.725
					c0,1.878-0.527,3.421-1.577,4.632c-1.05,1.209-2.498,1.973-4.341,2.289L504.406,251.154z M502.17,232.398
					c0-1.702-0.514-2.994-1.542-3.877c-1.027-0.881-2.398-1.321-4.113-1.321h-7.573v10.394h7.573c0.832,0,1.596-0.109,2.289-0.327
					c0.693-0.216,1.286-0.537,1.779-0.959c0.493-0.422,0.881-0.964,1.162-1.621C502.027,234.029,502.17,233.266,502.17,232.398"/>
				<rect x="513.399" y="225.475" style="clip-path:url(#SVGID_28_);" width="1.955" height="25.681"/>
				<path style="clip-path:url(#SVGID_28_);" d="M543.776,251.154l-1.304,1.304l-3.044-3.029c-1.631,1.291-3.513,1.937-5.647,1.937
					c-1.221,0-2.389-0.228-3.503-0.687c-1.114-0.458-2.088-1.105-2.92-1.937c-0.763-0.763-1.307-1.569-1.636-2.413
					c-0.328-0.846-0.534-1.814-0.616-2.907c-0.083-1.092-0.124-2.795-0.124-5.107c0-2.314,0.041-4.016,0.124-5.108
					c0.082-1.092,0.289-2.061,0.616-2.907c0.328-0.844,0.875-1.649,1.639-2.413c0.834-0.832,1.805-1.478,2.914-1.937
					c1.111-0.458,2.282-0.687,3.513-0.687c1.235,0,2.401,0.228,3.506,0.687c1.103,0.458,2.073,1.105,2.907,1.937
					c0.763,0.764,1.309,1.569,1.637,2.413c0.33,0.846,0.534,1.814,0.617,2.907c0.082,1.092,0.123,2.795,0.123,5.108
					c0,2.137-0.03,3.719-0.089,4.747c-0.059,1.026-0.218,1.955-0.48,2.783c-0.26,0.826-0.687,1.587-1.28,2.28L543.776,251.154z
					 M540.622,238.315c0-2.032-0.041-3.582-0.123-4.65c-0.083-1.068-0.265-1.97-0.545-2.704c-0.283-0.734-0.722-1.4-1.319-2
					c-0.658-0.657-1.4-1.148-2.226-1.478c-0.826-0.328-1.704-0.493-2.63-0.493c-0.915,0-1.792,0.165-2.63,0.493
					c-0.838,0.33-1.587,0.822-2.242,1.478c-0.458,0.458-0.813,0.935-1.064,1.428c-0.253,0.493-0.449,1.115-0.59,1.866
					c-0.141,0.752-0.228,1.61-0.265,2.572c-0.035,0.962-0.051,2.126-0.051,3.488c0,2.032,0.039,3.577,0.123,4.639
					c0.082,1.065,0.263,1.964,0.545,2.705c0.281,0.74,0.716,1.403,1.301,1.99c0.646,0.646,1.389,1.139,2.233,1.478
					c0.844,0.342,1.723,0.511,2.639,0.511c1.63,0,3.078-0.505,4.343-1.515l-3.585-3.61l1.283-1.304l3.573,3.577
					c0.539-0.799,0.879-1.758,1.018-2.881C540.551,242.785,540.622,240.923,540.622,238.315"/>
				<path style="clip-path:url(#SVGID_28_);" d="M569.412,242.824c0,1.645-0.372,3.119-1.12,4.421
					c-0.746,1.303-1.787,2.315-3.122,3.038c-1.333,0.722-2.852,1.083-4.556,1.083c-1.693,0-3.212-0.362-4.557-1.083
					c-1.347-0.723-2.392-1.736-3.138-3.038c-0.747-1.303-1.12-2.777-1.12-4.421v-17.349h1.955v17.103
					c0,1.41,0.284,2.645,0.853,3.707c0.569,1.064,1.374,1.888,2.418,2.475c1.044,0.587,2.241,0.881,3.589,0.881
					c1.326,0,2.513-0.294,3.562-0.881c1.049-0.587,1.86-1.412,2.429-2.475c0.567-1.062,0.852-2.297,0.852-3.707v-17.103h1.955
					V242.824z"/>
				<polygon style="clip-path:url(#SVGID_28_);" points="595.279,251.155 579.691,251.155 579.691,225.474 595.279,225.474 
					595.279,227.201 581.646,227.201 581.646,237.346 593.253,237.346 593.253,239.072 581.646,239.072 581.646,249.428 
					595.279,249.428 				"/>
				<rect x="-0.001" y="4.003" style="clip-path:url(#SVGID_28_);fill:#0086C7;" width="135.86" height="247.246"/>
				<path style="clip-path:url(#SVGID_28_);fill:#FFFFFF;" d="M116.37,115.252H41.758c0,6.715,1.144,12.454,3.432,17.212
					c2.286,4.762,5.591,8.452,9.906,11.071c4.318,2.621,9.649,3.93,15.997,3.93c6.346,0,11.475-0.885,15.388-2.656
					c3.91-1.77,8.079-4.797,12.507-9.079l14.724,13.727c-6.281,6.273-12.636,10.831-19.064,13.671
					c-6.428,2.843-14.444,4.261-24.049,4.261c-7.389,0-14.241-1.07-20.557-3.209c-6.317-2.14-11.804-5.535-16.458-10.183
					c-4.657-4.648-8.277-10.74-10.863-18.266c-2.586-7.528-3.88-16.603-3.88-27.232c0-12.323,2.014-22.877,6.042-31.659
					c4.026-8.781,9.696-15.499,17.01-20.147c7.313-4.651,15.885-6.974,25.712-6.974c10.047,0,18.764,2.323,26.153,6.974
					c7.389,4.648,13.004,11.162,16.846,19.537s5.765,17.989,5.765,28.838V115.252z M93.454,99.199
					c-0.221-5.975-1.256-11.18-3.099-15.606c-1.846-4.427-4.744-7.971-8.69-10.628c-3.949-2.657-8.617-3.987-14.004-3.987
					c-5.314,0-9.982,1.33-14.004,3.987c-4.022,2.657-6.992,6.201-8.909,10.628c-1.035,2.36-1.717,4.447-2.049,6.252
					c-0.333,1.81-0.648,4.927-0.941,9.354H93.454z"/>
				<path style="clip-path:url(#SVGID_28_);" d="M249.052,130.971c0,7.823-2.034,14.464-6.095,19.925
					c-4.066,5.461-9.681,9.575-16.846,12.344c-7.168,2.766-15.479,4.149-24.938,4.149c-6.873,0-13.096-0.478-18.673-1.439
					c-5.579-0.958-10.787-2.618-15.627-4.98c-4.839-2.36-9.513-5.718-14.019-10.074l15.214-15.166
					c7.755,7.97,18.802,11.957,33.134,11.957c4.728,0,9.032-0.592,12.91-1.773c3.878-1.179,6.889-2.949,9.032-5.311
					c2.141-2.36,3.214-5.278,3.214-8.747c0-8.263-5.131-12.802-15.387-13.615l-18.377-1.549c-7.33-0.664-13.53-2.212-18.601-4.651
					c-5.072-2.435-8.923-5.901-11.551-10.406c-2.63-4.497-3.943-10.071-3.943-16.715c0-10.846,4.119-19.424,12.359-25.737
					c8.239-6.31,18.564-9.463,30.98-9.463c18.548,0,32.773,4.317,42.674,12.949l-14.502,14.724
					c-6.715-5.606-16.162-8.414-28.339-8.414c-6.791,0-11.975,1.33-15.553,3.987c-3.58,2.657-5.369,6.275-5.369,10.849
					c0,7.749,5.314,12.105,15.942,13.063l18.154,1.66c7.157,0.592,13.3,2.141,18.43,4.65c5.129,2.509,9.041,6.087,11.734,10.736
					C247.704,118.571,249.052,124.256,249.052,130.971"/>
				<path style="clip-path:url(#SVGID_28_);" d="M317.974,28.464h-24.466V4h24.466V28.464z M317.31,166.062h-23.136V51.158h23.136
					V166.062z"/>
				<path style="clip-path:url(#SVGID_28_);" d="M462.614,115.252h-74.612c0,6.715,1.144,12.454,3.432,17.212
					c2.286,4.762,5.591,8.452,9.906,11.071c4.318,2.621,9.649,3.93,15.997,3.93c6.346,0,11.475-0.885,15.388-2.656
					c3.91-1.77,8.078-4.797,12.507-9.079l14.724,13.727c-6.281,6.273-12.636,10.831-19.064,13.671
					c-6.428,2.843-14.444,4.261-24.049,4.261c-7.389,0-14.241-1.07-20.557-3.209c-6.317-2.14-11.804-5.535-16.458-10.183
					c-4.657-4.648-8.277-10.74-10.863-18.266c-2.586-7.528-3.88-16.603-3.88-27.232c0-12.323,2.014-22.877,6.042-31.659
					c4.026-8.781,9.696-15.499,17.01-20.147c7.313-4.651,15.885-6.974,25.712-6.974c10.047,0,18.764,2.323,26.153,6.974
					c7.389,4.648,13.004,11.162,16.845,19.537c3.842,8.375,5.765,17.989,5.765,28.838V115.252z M439.697,99.199
					c-0.221-5.975-1.256-11.18-3.099-15.606c-1.846-4.427-4.744-7.971-8.69-10.628c-3.949-2.657-8.617-3.987-14.004-3.987
					c-5.314,0-9.982,1.33-14.004,3.987c-4.022,2.657-6.992,6.201-8.909,10.628c-1.035,2.36-1.717,4.447-2.049,6.252
					c-0.333,1.81-0.648,4.927-0.941,9.354H439.697z"/>
				<path style="clip-path:url(#SVGID_28_);" d="M594.852,166.063h-22.694v-10.406c-4.205,4.205-8.597,7.213-13.172,9.021
					c-4.577,1.807-10.371,2.712-17.38,2.712c-6.938,0-12.952-0.87-18.044-2.601c-5.092-1.733-9.374-4.335-12.842-7.805
					c-6.052-6.272-9.077-14.502-9.077-24.686c0-6.567,1.512-12.341,4.538-17.324c3.025-4.983,7.508-8.858,13.45-11.624
					c5.941-2.766,13.154-4.152,21.642-4.152h30.442V91.04c0-7.351-1.993-12.756-5.978-16.213c-3.986-3.456-10.369-5.184-19.15-5.184
					c-6.422,0-11.421,0.81-15.001,2.426c-3.58,1.621-6.992,4.486-10.239,8.604l-15.166-14.257
					c5.24-6.233,10.996-10.574,17.271-13.023c6.27-2.45,14.279-3.674,24.021-3.674c31.586,0,47.379,13.172,47.379,39.518V166.063z
					 M571.717,124.55v-9.298h-27.011c-6.717,0-11.828,1.441-15.331,4.318c-3.507,2.875-5.26,6.971-5.26,12.285
					c0,10.849,7.012,16.275,21.032,16.275c4.945,0,9.077-0.425,12.4-1.274c3.32-0.847,6.382-2.601,9.188-5.257
					C570.055,138.277,571.717,132.593,571.717,124.55"/>
			</g>
		</g>
	</g>
</g>
</svg>
