<?xml version="1.0" encoding="iso-8859-1"?>
<!-- Generator: Adobe Illustrator 18.1.1, SVG Export Plug-In . SVG Version: 6.00 Build 0)  -->
<svg version="1.1" xmlns="http://www.w3.org/2000/svg" xmlns:xlink="http://www.w3.org/1999/xlink" x="0px" y="0px"
	 viewBox="0 0 595.28 260.79" style="enable-background:new 0 0 595.28 260.79;" xml:space="preserve">
<g id="IPPON">
	<g>
		<g>
			<defs>
				<rect id="SVGID_7_" x="2.732" y="28.239" width="588.839" height="209.905"/>
			</defs>
			<clipPath id="SVGID_8_">
				<use xlink:href="#SVGID_7_"  style="overflow:visible;"/>
			</clipPath>
			<rect x="7.841" y="33.943" style="clip-path:url(#SVGID_8_);fill:#E52822;" width="20.538" height="139.182"/>
			<path style="clip-path:url(#SVGID_8_);fill:#E52822;" d="M32.722,177.475H3.492V29.604h29.23V177.475z M12.184,168.78h11.848
				V38.288H12.184V168.78z"/>
			<g style="clip-path:url(#SVGID_8_);">
				<defs>
					<rect id="SVGID_9_" x="-8.772" y="3.756" width="614.143" height="256.827"/>
				</defs>
				<clipPath id="SVGID_10_">
					<use xlink:href="#SVGID_9_"  style="overflow:visible;"/>
				</clipPath>
				<path style="clip-path:url(#SVGID_10_);fill:#E52822;" d="M120.286,33.85c7.139,0,12.564,0.554,16.267,1.652
					c8.17,2.536,14.813,7.235,19.933,14.112c5.254,6.943,7.892,14.801,7.892,23.558c0,10.898-3.967,20.344-11.872,28.323
					c-7.983,8.103-17.268,12.204-27.831,12.262h-51v59.369H53.128V33.943h20.548L120.286,33.85z M119.222,94.091
					c8.176-0.778,14.395-3.206,18.685-7.289c3.894-3.707,5.848-8.25,5.848-13.631c0-8.109-3.707-13.819-11.098-17.134
					c-2.283-1.046-5.787-1.557-10.509-1.557H73.173l0.503,39.61H119.222z"/>
				<path style="clip-path:url(#SVGID_10_);fill:#E52822;" d="M78.025,177.475h-29.25V29.603l71.499-0.1
					c7.634,0,13.353,0.592,17.514,1.831c9.084,2.819,16.531,8.093,22.184,15.686c5.8,7.664,8.759,16.469,8.759,26.152
					c0,12.03-4.415,22.582-13.128,31.381c-8.779,8.91-19.173,13.474-30.901,13.559H78.025V177.475z M57.471,168.781h11.858v-59.366
					h55.347c9.429-0.066,17.528-3.659,24.741-10.968c7.145-7.217,10.618-15.486,10.618-25.275c0-7.853-2.296-14.697-7.014-20.923
					c-4.612-6.211-10.415-10.316-17.752-12.597c-3.248-0.962-8.31-1.459-14.984-1.459l-62.815,0.096V168.781z M119.433,98.436
					H69.387L68.768,50.14h53.379c5.414,0,9.45,0.639,12.315,1.951c8.909,3.985,13.635,11.282,13.635,21.081
					c0,6.597-2.425,12.256-7.199,16.778c-4.981,4.753-12.137,7.603-21.263,8.471L119.433,98.436z M77.966,89.741h41.047
					c7.034-0.69,12.389-2.739,15.897-6.086c3.025-2.876,4.491-6.302,4.491-10.483c0-6.38-2.702-10.567-8.521-13.165
					c-1.192-0.55-3.644-1.183-8.732-1.183H77.576L77.966,89.741z"/>
				<path style="clip-path:url(#SVGID_10_);fill:#E52822;" d="M251.881,33.85c7.128,0,12.554,0.554,16.248,1.652
					c8.18,2.536,14.82,7.235,19.958,14.112c5.252,6.943,7.883,14.801,7.883,23.558c0,10.898-3.956,20.344-11.883,28.323
					c-7.97,8.103-17.263,12.204-27.835,12.262H205.26v59.369h-20.528V33.943h20.528L251.881,33.85z M250.804,94.091
					c8.184-0.778,14.414-3.206,18.695-7.289c3.884-3.707,5.832-8.25,5.832-13.631c0-8.109-3.695-13.819-11.093-17.134
					c-2.28-1.046-5.79-1.557-10.508-1.557h-48.96l0.489,39.61H250.804z"/>
				<path style="clip-path:url(#SVGID_10_);fill:#E52822;" d="M209.605,177.475h-29.227V29.603l71.491-0.1
					c7.622,0,13.349,0.592,17.503,1.831c9.084,2.814,16.53,8.093,22.201,15.686c5.795,7.653,8.743,16.459,8.743,26.152
					c0,12.041-4.421,22.603-13.143,31.381c-8.758,8.906-19.158,13.474-30.887,13.559h-46.681V177.475z M189.075,168.781h11.834
					v-59.366h55.343c9.441-0.066,17.544-3.659,24.735-10.968c7.163-7.211,10.637-15.471,10.637-25.275
					c0-7.859-2.296-14.707-7.005-20.923c-4.618-6.207-10.429-10.316-17.779-12.597c-3.24-0.962-8.293-1.459-14.96-1.459
					l-62.806,0.096V168.781z M251.011,98.436h-50.043l-0.599-48.296h53.363c5.412,0,9.441,0.639,12.313,1.951
					c8.905,3.985,13.636,11.277,13.636,21.081c0,6.597-2.42,12.245-7.195,16.778c-4.972,4.753-12.133,7.603-21.269,8.471
					L251.011,98.436z M209.555,89.741h41.04c7.048-0.69,12.391-2.739,15.898-6.08c3.024-2.882,4.493-6.312,4.493-10.489
					c0-6.38-2.703-10.572-8.523-13.165c-1.192-0.55-3.637-1.183-8.729-1.183h-44.564L209.555,89.741z"/>
				<path style="clip-path:url(#SVGID_10_);fill:#E52822;" d="M566.5,91.278c-0.119-10.583-3.93-19.575-11.39-26.968
					c-7.528-7.395-16.546-11.097-27.054-11.097c-10.264,0-19.08,3.531-26.481,10.616c-7.392,7.006-11.37,15.6-11.967,25.791v83.504
					H468.88V91.278c0.149-16.292,5.982-30.147,17.511-41.562c11.494-11.419,25.371-17.139,41.665-17.139
					c16.216,0,30.113,5.72,41.644,17.139c11.552,11.415,17.387,25.27,17.531,41.562v81.847H566.5V91.278z"/>
				<path style="clip-path:url(#SVGID_10_);fill:#E52822;" d="M591.572,177.475h-29.416V91.278
					c-0.114-9.416-3.424-17.25-10.111-23.874c-6.73-6.625-14.582-9.844-23.989-9.844c-9.182,0-16.85,3.078-23.47,9.405
					c-6.599,6.264-10.07,13.714-10.626,22.776v87.734h-29.427V91.278c0.155-17.448,6.475-32.454,18.805-44.647
					c12.269-12.203,27.328-18.392,44.718-18.392c17.338,0,32.379,6.185,44.709,18.392c12.329,12.193,18.666,27.199,18.807,44.606
					V177.475z M570.849,168.78h12.039V91.278c-0.142-15.198-5.448-27.8-16.234-38.475c-10.647-10.531-23.634-15.879-38.598-15.879
					c-15.226,0-27.851,5.196-38.589,15.872c-10.798,10.682-16.115,23.284-16.241,38.519v77.466h12.039l0.015-79.411
					c0.646-11.283,5.121-20.935,13.31-28.699c8.191-7.828,18.106-11.8,29.466-11.8c11.635,0,21.757,4.151,30.101,12.344
					c8.289,8.214,12.558,18.306,12.691,30.017V168.78z"/>
				<path style="clip-path:url(#SVGID_10_);fill:#FCC00D;" d="M431.86,46.995c-0.773-0.668-1.596-1.233-2.395-1.853
					c-9.247-7.133-20.032-11.125-30.974-12.067h-0.052c-1.801-0.149-3.605-0.218-5.408-0.207c-0.054,0-0.114,0.006-0.175,0.006
					c-1.767,0.021-3.53,0.11-5.282,0.28c-0.091,0.012-0.182,0.032-0.276,0.037c-1.724,0.18-3.45,0.429-5.149,0.757
					c-0.11,0.028-0.218,0.057-0.32,0.079c-1.695,0.339-3.375,0.742-5.041,1.218c-0.105,0.038-0.194,0.079-0.297,0.106
					c-1.671,0.492-3.324,1.06-4.946,1.705c-0.051,0.021-0.102,0.048-0.147,0.063c-8.516,3.421-16.36,8.887-22.729,16.336
					c-11.897,13.909-16.19,31.818-13.27,48.609c2.281,12.993,8.896,25.295,19.668,34.534c-18.05-15.476-20.154-42.757-4.678-60.803
					c5.089-5.947,11.483-10.156,18.399-12.581c0-0.011,0.012-0.023,0.012-0.037c15.356-5.408,31.485-4.055,45.117,2.489
					c0.175,0.085,0.346,0.196,0.528,0.287c1.503,0.736,2.988,1.514,4.426,2.382c11.353,6.83,20.482,17.484,25.214,30.918
					c9.175,26.03-0.567,54.233-22.449,68.793c6.739-4.034,12.967-9.171,18.35-15.45C466.861,121.239,463.21,73.863,431.86,46.995
					 M429.551,45.221c0.511,0.391,1.003,0.8,1.503,1.214C430.555,46.021,430.063,45.612,429.551,45.221"/>
				<path style="clip-path:url(#SVGID_10_);fill:#F2B835;" d="M426.594,43.004c0.947,0.672,1.896,1.364,2.799,2.09
					C428.473,44.38,427.549,43.649,426.594,43.004"/>
				<path style="clip-path:url(#SVGID_10_);fill:#E52822;" d="M308.786,105.76c2.428,25.777,23.739,54.514,50.333,59.497
					c30.153,5.639,56.998-19.18,65.161-48.133c-6.464,20.518-27.362,33.481-49,29.408c-7.712-1.46-14.54-4.886-20.102-9.679h-0.039
					c-10.832-9.302-17.477-21.704-19.741-34.788c-2.92-16.791,1.373-34.701,13.269-48.609c6.371-7.45,14.215-12.916,22.729-16.336
					c0.049-0.016,0.095-0.042,0.148-0.063c1.622-0.646,3.274-1.213,4.946-1.706c0.102-0.027,0.191-0.068,0.296-0.106
					c1.666-0.476,3.347-0.878,5.042-1.218c0.102-0.021,0.21-0.051,0.319-0.078c1.7-0.328,3.424-0.578,5.15-0.758
					c0.094-0.005,0.184-0.025,0.276-0.036c1.753-0.169,3.515-0.259,5.281-0.281c0.061,0,0.122-0.006,0.175-0.006
					c1.802-0.01,3.606,0.059,5.409,0.207h0.051c10.943,0.942,21.727,4.935,30.975,12.068c0.014,0.011,0.023,0.017,0.033,0.027
					c-0.033-0.027-0.068-0.048-0.105-0.075c-0.903-0.726-1.85-1.419-2.799-2.09c-8.601-6.186-18.627-10.64-29.702-12.726
					c-40.601-7.645-79.791,19.227-87.361,59.898c-0.702,3.761-0.987,7.51-0.971,11.2c0.012,0.487,0.007,0.968,0.031,1.44
					C308.614,103.812,308.71,104.787,308.786,105.76"/>
				<path style="clip-path:url(#SVGID_10_);fill:#E52822;" d="M444.084,99.253c-4.731-13.435-13.86-24.088-25.214-30.919
					c-1.438-0.868-2.922-1.647-4.426-2.381c-0.182-0.092-0.353-0.203-0.528-0.288c-13.624-6.528-29.734-7.877-45.084-2.473
					c22.432-7.888,47.099,3.935,54.995,26.349c2.598,7.38,3.047,15.027,1.698,22.212c0,0.017,0.009,0.027,0.028,0.043
					c-0.341,1.81-0.78,3.585-1.272,5.326c-8.162,28.953-36.633,47.46-66.783,41.815c-26.594-4.982-46.283-27.401-48.71-53.178
					c-0.091-0.973-0.163-1.948-0.196-2.944c-0.024-0.472-0.019-0.952-0.031-1.44c-0.046-2.834,0.044-5.686,0.427-8.562
					c-1.697,11.628,0.157,24.092,4.322,35.922c13.721,38.951,56.556,59.474,95.516,45.771c4.65-1.642,8.894-3.86,12.81-6.46
					C443.517,153.485,453.259,125.283,444.084,99.253"/>
				<path style="clip-path:url(#SVGID_10_);fill:#121212;" d="M2.732,229.692v-29.186h6.052c4.352,0,7.52,0.35,9.504,1.052
					c2.962,1.044,5.23,2.85,6.805,5.416c1.481,2.407,2.222,5.237,2.222,8.491c0,2.659-0.555,5.092-1.666,7.303
					c-1.217,2.392-2.93,4.171-5.139,5.336c-2.024,1.058-4.854,1.588-8.492,1.588H2.732z M5.53,226.933h3.373
					c4.048,0,6.845-0.25,8.392-0.751c2.328-0.756,4.108-2.117,5.338-4.09c1.15-1.85,1.725-4.047,1.725-6.585
					c0-2.726-0.642-5.073-1.924-7.044c-1.349-2.09-3.286-3.518-5.813-4.285c-1.825-0.555-4.834-0.833-9.028-0.833H5.53V226.933z"/>
				<path style="clip-path:url(#SVGID_10_);fill:#121212;" d="M33.484,199.217c0.635,0,1.178,0.226,1.628,0.675
					c0.449,0.449,0.675,0.992,0.675,1.627s-0.226,1.174-0.675,1.618c-0.45,0.442-0.993,0.664-1.628,0.664
					c-0.621,0-1.157-0.226-1.606-0.675c-0.45-0.449-0.675-0.985-0.675-1.607c0-0.635,0.222-1.178,0.665-1.627
					C32.311,199.442,32.85,199.217,33.484,199.217 M32.096,208.106h2.798v21.587h-2.798V208.106z"/>
				<path style="clip-path:url(#SVGID_10_);fill:#121212;" d="M59.258,208.105h2.797v17.204c0,3.002-0.265,5.217-0.794,6.645
					c-0.78,2.103-2.142,3.69-4.087,4.762c-1.733,0.952-3.796,1.428-6.19,1.428c-3.703,0-6.567-0.959-8.59-2.878
					c-0.926-0.884-1.779-2.175-2.56-3.868h3.015c1.614,2.804,4.279,4.207,7.996,4.207c3.77,0,6.297-1.245,7.579-3.73
					c0.556-1.071,0.834-2.799,0.834-5.179v-1.112c-2.171,2.741-5.047,4.109-8.631,4.109c-1.972,0-3.829-0.486-5.575-1.458
					c-1.746-0.971-3.099-2.298-4.057-3.978c-0.959-1.681-1.439-3.518-1.439-5.516c0-2.011,0.496-3.876,1.488-5.595
					c0.992-1.719,2.365-3.082,4.117-4.088c1.752-1.005,3.6-1.508,5.544-1.508c3.281,0,6.131,1.436,8.552,4.306V208.105z
					 M51.064,210.228c-1.575,0-3.035,0.377-4.384,1.131c-1.349,0.754-2.408,1.806-3.175,3.155c-0.767,1.349-1.15,2.804-1.15,4.365
					c0,2.447,0.82,4.432,2.46,5.953c1.6,1.494,3.631,2.241,6.091,2.241c2.54,0,4.59-0.761,6.15-2.283
					c1.561-1.52,2.342-3.543,2.342-6.07c0-3.373-1.369-5.833-4.108-7.381C53.981,210.599,52.571,210.228,51.064,210.228"/>
				<path style="clip-path:url(#SVGID_10_);fill:#121212;" d="M68.96,199.217c0.635,0,1.178,0.226,1.627,0.675
					c0.449,0.449,0.675,0.992,0.675,1.627s-0.226,1.174-0.675,1.618c-0.449,0.442-0.992,0.664-1.627,0.664
					c-0.622,0-1.158-0.226-1.607-0.675s-0.675-0.985-0.675-1.607c0-0.635,0.222-1.178,0.666-1.627
					C67.786,199.442,68.325,199.217,68.96,199.217 M67.571,208.106h2.798v21.587h-2.798V208.106z"/>
				<polygon style="clip-path:url(#SVGID_10_);fill:#121212;" points="78.543,200.09 81.341,200.09 81.341,208.105 85.745,208.105 
					85.745,210.486 81.341,210.486 81.341,229.692 78.543,229.692 78.543,210.486 74.753,210.486 74.753,208.105 78.543,208.105 
									"/>
				<path style="clip-path:url(#SVGID_10_);fill:#121212;" d="M111.419,208.105v21.587h-2.738v-3.712
					c-2.342,2.846-5.231,4.267-8.67,4.267c-3.122,0-5.754-1.125-7.897-3.373c-2.115-2.208-3.174-4.888-3.174-8.035
					c0-3.108,1.08-5.767,3.245-7.976c2.161-2.21,4.797-3.314,7.905-3.314c3.559,0,6.422,1.508,8.591,4.524v-3.969H111.419z
					 M100.308,210.228c-3.306,0-5.774,1.449-7.401,4.345c-0.781,1.376-1.171,2.83-1.171,4.366c0,1.533,0.39,2.992,1.171,4.374
					c0.781,1.382,1.829,2.46,3.144,3.235c1.317,0.773,2.729,1.16,4.237,1.16c1.521,0,2.963-0.383,4.325-1.15
					c1.362-0.768,2.411-1.804,3.143-3.117c0.736-1.307,1.102-2.782,1.102-4.423c0-2.473-0.81-4.557-2.43-6.25
					C104.809,211.074,102.768,210.228,100.308,210.228"/>
				<rect x="117.232" y="199.772" style="clip-path:url(#SVGID_10_);fill:#121212;" width="2.778" height="29.919"/>
				<path style="clip-path:url(#SVGID_10_);fill:#121212;" d="M140.088,225.327c0.687,0,1.266,0.238,1.737,0.714
					c0.469,0.477,0.703,1.058,0.703,1.746c0,0.675-0.238,1.254-0.714,1.737c-0.477,0.483-1.052,0.723-1.726,0.723
					s-1.25-0.24-1.726-0.723c-0.476-0.484-0.714-1.063-0.714-1.737c0-0.688,0.234-1.269,0.704-1.746
					C138.822,225.565,139.401,225.327,140.088,225.327"/>
				<polygon style="clip-path:url(#SVGID_10_);fill:#121212;" points="157.092,203.344 157.092,200.506 173.103,200.506 
					173.103,203.344 166.595,203.344 166.595,229.692 163.619,229.692 163.619,203.344 				"/>
				<path style="clip-path:url(#SVGID_10_);fill:#121212;" d="M195.005,222.531l2.343,1.228c-1.456,2.845-3.471,4.762-6.051,5.756
					c-1.258,0.487-2.679,0.733-4.266,0.733c-3.241,0-5.922-1.071-8.046-3.214c-2.121-2.143-3.184-4.833-3.184-8.074
					c0-2.739,0.84-5.179,2.52-7.322c2.13-2.725,4.979-4.087,8.551-4.087c3.677,0,6.614,1.396,8.809,4.186
					c1.561,1.984,2.354,4.444,2.381,7.381h-19.424c0.052,2.419,0.808,4.439,2.264,6.051c1.536,1.693,3.495,2.54,5.878,2.54
					c2.305,0,4.258-0.7,5.861-2.103C193.369,224.97,194.157,223.945,195.005,222.531 M195.007,216.716
					c-0.687-2.73-2.163-4.622-4.425-5.676c-1.163-0.541-2.387-0.811-3.67-0.811c-2.115,0-3.935,0.68-5.456,2.038
					c-1.111,0.989-1.952,2.472-2.52,4.45H195.007z"/>
				<path style="clip-path:url(#SVGID_10_);fill:#121212;" d="M224.212,212.589l-2.202,1.369c-1.905-2.527-4.505-3.79-7.798-3.79
					c-2.553,0-4.709,0.807-6.468,2.421c-1.798,1.666-2.698,3.763-2.698,6.29c0,1.587,0.404,3.073,1.21,4.454
					c0.807,1.382,1.905,2.456,3.294,3.223c1.389,0.768,2.949,1.151,4.682,1.151c3.175,0,5.767-1.263,7.778-3.79l2.202,1.449
					c-2.17,3.254-5.536,4.882-10.099,4.882c-3.293,0-6.078-1.032-8.353-3.095c-2.341-2.129-3.511-4.823-3.511-8.075
					c0-2.104,0.525-4.048,1.578-5.833c1.05-1.785,2.496-3.182,4.334-4.186c1.839-1.005,3.896-1.508,6.171-1.508
					c2.937,0,5.443,0.786,7.52,2.361C222.776,210.613,223.564,211.505,224.212,212.589"/>
				<path style="clip-path:url(#SVGID_10_);fill:#121212;" d="M229.53,199.772h2.778v12.202c2.235-2.949,4.933-4.425,8.094-4.425
					c1.575,0,2.993,0.401,4.255,1.2c1.264,0.801,2.197,1.903,2.799,3.304c0.601,1.401,0.902,3.578,0.902,6.527v11.111h-2.777
					v-10.298c0-2.486-0.099-4.146-0.298-4.979c-0.687-2.87-2.499-4.306-5.436-4.306c-1.679,0-3.184,0.552-4.514,1.656
					c-1.328,1.105-2.204,2.484-2.628,4.137c-0.265,1.032-0.396,2.989-0.396,5.872v7.917h-2.778V199.772z"/>
				<path style="clip-path:url(#SVGID_10_);fill:#121212;" d="M254.31,208.105h2.778v3.869c2.209-2.949,4.907-4.425,8.095-4.425
					c1.574,0,2.992,0.4,4.254,1.199c1.264,0.801,2.197,1.905,2.799,3.315c0.602,1.407,0.902,3.581,0.902,6.516v11.112h-2.757
					v-10.299c0-2.431-0.106-4.093-0.317-4.978c-0.687-2.87-2.5-4.306-5.436-4.306c-1.68,0-3.185,0.552-4.515,1.656
					c-1.328,1.105-2.204,2.483-2.627,4.137c-0.266,1.044-0.397,3.003-0.397,5.871v7.918h-2.778V208.105z"/>
				<path style="clip-path:url(#SVGID_10_);fill:#121212;" d="M289.309,207.55c3.32,0,6.071,1.203,8.254,3.611
					c1.983,2.195,2.976,4.794,2.976,7.797c0,3.176-1.078,5.851-3.234,8.026c-2.156,2.175-4.822,3.264-7.996,3.264
					c-3.175,0-5.844-1.085-8.005-3.254c-2.164-2.169-3.244-4.848-3.244-8.036c0-2.989,0.992-5.582,2.976-7.777
					C283.218,208.76,285.976,207.55,289.309,207.55 M289.298,210.268c-2.365,0-4.356,0.863-5.974,2.59
					c-1.619,1.724-2.428,3.779-2.428,6.16c0,1.533,0.362,2.969,1.089,4.307c0.753,1.375,1.778,2.432,3.073,3.174
					c1.294,0.741,2.707,1.111,4.24,1.111c3.277,0,5.701-1.409,7.274-4.227c0.752-1.349,1.13-2.804,1.13-4.365
					c0-2.381-0.81-4.436-2.428-6.16C293.655,211.131,291.664,210.268,289.298,210.268"/>
				<rect x="305.28" y="199.772" style="clip-path:url(#SVGID_10_);fill:#121212;" width="2.778" height="29.919"/>
				<path style="clip-path:url(#SVGID_10_);fill:#121212;" d="M324.05,207.55c3.32,0,6.07,1.203,8.254,3.611
					c1.983,2.195,2.976,4.794,2.976,7.797c0,3.176-1.078,5.851-3.234,8.026c-2.156,2.175-4.822,3.264-7.996,3.264
					c-3.175,0-5.844-1.085-8.005-3.254c-2.164-2.169-3.245-4.848-3.245-8.036c0-2.989,0.993-5.582,2.977-7.777
					C317.959,208.76,320.717,207.55,324.05,207.55 M324.039,210.268c-2.365,0-4.356,0.863-5.974,2.59
					c-1.619,1.724-2.428,3.779-2.428,6.16c0,1.533,0.362,2.969,1.089,4.307c0.753,1.375,1.778,2.432,3.073,3.174
					c1.294,0.741,2.707,1.111,4.24,1.111c3.277,0,5.701-1.409,7.274-4.227c0.752-1.349,1.13-2.804,1.13-4.365
					c0-2.381-0.81-4.436-2.428-6.16C328.396,211.131,326.405,210.268,324.039,210.268"/>
				<path style="clip-path:url(#SVGID_10_);fill:#121212;" d="M359.05,208.105h2.796v17.204c0,3.002-0.266,5.217-0.794,6.645
					c-0.779,2.103-2.142,3.69-4.087,4.762c-1.734,0.952-3.797,1.428-6.19,1.428c-3.703,0-6.567-0.959-8.59-2.878
					c-0.926-0.884-1.779-2.175-2.559-3.868h3.015c1.614,2.804,4.279,4.207,7.998,4.207c3.767,0,6.295-1.245,7.576-3.73
					c0.556-1.071,0.836-2.799,0.836-5.179v-1.112c-2.171,2.741-5.047,4.109-8.632,4.109c-1.972,0-3.829-0.486-5.575-1.458
					c-1.746-0.971-3.099-2.298-4.057-3.978c-0.959-1.681-1.439-3.518-1.439-5.516c0-2.011,0.496-3.876,1.488-5.595
					c0.992-1.719,2.365-3.082,4.117-4.088c1.752-1.005,3.6-1.508,5.544-1.508c3.282,0,6.13,1.436,8.553,4.306V208.105z
					 M350.854,210.228c-1.574,0-3.035,0.377-4.384,1.131c-1.349,0.754-2.408,1.806-3.175,3.155c-0.766,1.349-1.15,2.804-1.15,4.365
					c0,2.447,0.82,4.432,2.46,5.953c1.6,1.494,3.631,2.241,6.091,2.241c2.54,0,4.591-0.761,6.15-2.283
					c1.56-1.52,2.342-3.543,2.342-6.07c0-3.373-1.371-5.833-4.106-7.381C353.77,210.599,352.362,210.228,350.854,210.228"/>
				<path style="clip-path:url(#SVGID_10_);fill:#121212;" d="M368.751,199.217c0.634,0,1.176,0.226,1.627,0.675
					c0.45,0.449,0.675,0.992,0.675,1.627s-0.225,1.174-0.675,1.618c-0.451,0.442-0.993,0.664-1.627,0.664
					c-0.621,0-1.158-0.226-1.606-0.675c-0.45-0.449-0.677-0.985-0.677-1.607c0-0.635,0.224-1.178,0.668-1.627
					C367.576,199.442,368.116,199.217,368.751,199.217 M367.361,208.106h2.799v21.587h-2.799V208.106z"/>
				<path style="clip-path:url(#SVGID_10_);fill:#121212;" d="M394.086,222.531l2.343,1.228c-1.456,2.845-3.472,4.762-6.052,5.756
					c-1.259,0.487-2.678,0.733-4.265,0.733c-3.242,0-5.924-1.071-8.048-3.214c-2.119-2.143-3.184-4.833-3.184-8.074
					c0-2.739,0.84-5.179,2.521-7.322c2.128-2.725,4.981-4.087,8.552-4.087c3.676,0,6.613,1.396,8.809,4.186
					c1.56,1.984,2.353,4.444,2.381,7.381h-19.425c0.051,2.419,0.808,4.439,2.264,6.051c1.536,1.693,3.497,2.54,5.877,2.54
					c2.306,0,4.258-0.7,5.862-2.103C392.449,224.97,393.236,223.945,394.086,222.531 M394.086,216.716
					c-0.686-2.73-2.162-4.622-4.424-5.676c-1.164-0.541-2.387-0.811-3.671-0.811c-2.114,0-3.935,0.68-5.455,2.038
					c-1.111,0.989-1.952,2.472-2.519,4.45H394.086z"/>
				<path style="clip-path:url(#SVGID_10_);fill:#121212;" d="M413.212,210.466l-1.787,1.846c-1.485-1.442-2.937-2.163-4.356-2.163
					c-0.86,0-1.623,0.285-2.286,0.853s-0.995,1.276-0.995,2.123c0,1.428,1.376,2.857,4.127,4.285
					c1.692,0.874,2.925,1.707,3.69,2.501c1.071,1.111,1.606,2.439,1.606,3.986c0,1.826-0.625,3.34-1.884,4.543
					c-1.258,1.204-2.803,1.806-4.642,1.806c-2.659,0-4.78-1.017-6.368-3.055l1.746-1.984c1.414,1.601,2.915,2.402,4.503,2.402
					c1.044,0,1.975-0.341,2.787-1.022c0.814-0.681,1.221-1.538,1.221-2.57c0-1.045-0.484-1.963-1.448-2.756
					c-0.476-0.397-1.416-0.952-2.819-1.666c-1.599-0.822-2.768-1.636-3.511-2.441c-1.003-1.084-1.508-2.381-1.508-3.889
					c0-1.68,0.565-3.052,1.7-4.117c1.132-1.065,2.539-1.597,4.222-1.597C409.197,207.549,411.2,208.522,413.212,210.466"/>
				<path style="clip-path:url(#SVGID_10_);fill:#121212;" d="M432.399,225.327c0.686,0,1.265,0.238,1.736,0.714
					c0.47,0.477,0.705,1.058,0.705,1.746c0,0.675-0.238,1.254-0.714,1.737c-0.477,0.483-1.053,0.723-1.727,0.723
					c-0.675,0-1.252-0.24-1.727-0.723c-0.477-0.484-0.714-1.063-0.714-1.737c0-0.688,0.235-1.269,0.704-1.746
					C431.134,225.565,431.713,225.327,432.399,225.327"/>
				<polygon style="clip-path:url(#SVGID_10_);fill:#121212;" points="452.258,200.506 455.195,200.506 455.195,212.748 
					470.035,212.748 470.035,200.506 472.972,200.506 472.972,229.692 470.035,229.692 470.035,215.605 455.195,215.605 
					455.195,229.692 452.258,229.692 				"/>
				<path style="clip-path:url(#SVGID_10_);fill:#121212;" d="M489.818,207.55c3.322,0,6.071,1.203,8.254,3.611
					c1.984,2.195,2.976,4.794,2.976,7.797c0,3.176-1.078,5.851-3.235,8.026c-2.155,2.175-4.821,3.264-7.995,3.264
					c-3.175,0-5.843-1.085-8.004-3.254c-2.167-2.169-3.245-4.848-3.245-8.036c0-2.989,0.99-5.582,2.974-7.777
					C483.728,208.76,486.484,207.55,489.818,207.55 M489.806,210.268c-2.362,0-4.356,0.863-5.973,2.59
					c-1.618,1.724-2.428,3.779-2.428,6.16c0,1.533,0.361,2.969,1.09,4.307c0.751,1.375,1.779,2.432,3.072,3.174
					c1.293,0.741,2.707,1.111,4.239,1.111c3.277,0,5.703-1.409,7.274-4.227c0.753-1.349,1.13-2.804,1.13-4.365
					c0-2.381-0.808-4.436-2.428-6.16C494.164,211.131,492.173,210.268,489.806,210.268"/>
				<path style="clip-path:url(#SVGID_10_);fill:#121212;" d="M517.097,210.466l-1.787,1.846c-1.485-1.442-2.937-2.163-4.356-2.163
					c-0.86,0-1.623,0.285-2.286,0.853c-0.663,0.568-0.995,1.276-0.995,2.123c0,1.428,1.376,2.857,4.127,4.285
					c1.692,0.874,2.925,1.707,3.69,2.501c1.071,1.111,1.606,2.439,1.606,3.986c0,1.826-0.625,3.34-1.884,4.543
					c-1.258,1.204-2.803,1.806-4.642,1.806c-2.659,0-4.78-1.017-6.368-3.055l1.746-1.984c1.414,1.601,2.915,2.402,4.502,2.402
					c1.044,0,1.975-0.341,2.787-1.022c0.814-0.681,1.221-1.538,1.221-2.57c0-1.045-0.484-1.963-1.448-2.756
					c-0.476-0.397-1.417-0.952-2.82-1.666c-1.599-0.822-2.768-1.636-3.511-2.441c-1.003-1.084-1.508-2.381-1.508-3.889
					c0-1.68,0.565-3.052,1.7-4.117c1.132-1.065,2.539-1.597,4.222-1.597C513.082,207.549,515.085,208.522,517.097,210.466"/>
				<polygon style="clip-path:url(#SVGID_10_);fill:#121212;" points="524.398,200.09 527.197,200.09 527.197,208.105 
					531.602,208.105 531.602,210.486 527.197,210.486 527.197,229.692 524.398,229.692 524.398,210.486 520.61,210.486 
					520.61,208.105 524.398,208.105 				"/>
				<path style="clip-path:url(#SVGID_10_);fill:#121212;" d="M536.721,199.217c0.634,0,1.179,0.226,1.627,0.675
					c0.448,0.449,0.675,0.992,0.675,1.627s-0.227,1.174-0.675,1.618c-0.448,0.442-0.993,0.664-1.627,0.664
					c-0.623,0-1.158-0.226-1.608-0.675c-0.448-0.449-0.673-0.985-0.673-1.607c0-0.635,0.22-1.178,0.663-1.627
					C535.547,199.442,536.086,199.217,536.721,199.217 M535.331,208.106h2.796v21.587h-2.796V208.106z"/>
				<path style="clip-path:url(#SVGID_10_);fill:#121212;" d="M543.884,208.105h2.778v3.869c2.208-2.949,4.906-4.425,8.095-4.425
					c1.573,0,2.992,0.4,4.252,1.199c1.266,0.801,2.199,1.905,2.801,3.315c0.6,1.407,0.901,3.581,0.901,6.516v11.112h-2.758v-10.299
					c0-2.431-0.105-4.093-0.318-4.978c-0.686-2.87-2.497-4.306-5.434-4.306c-1.68,0-3.184,0.552-4.513,1.656
					c-1.331,1.105-2.206,2.483-2.628,4.137c-0.267,1.044-0.397,3.003-0.397,5.871v7.918h-2.778V208.105z"/>
				<path style="clip-path:url(#SVGID_10_);fill:#121212;" d="M587.274,208.105h2.799v17.204c0,3.002-0.267,5.217-0.794,6.645
					c-0.782,2.103-2.143,3.69-4.09,4.762c-1.731,0.952-3.795,1.428-6.19,1.428c-3.702,0-6.566-0.959-8.589-2.878
					c-0.924-0.884-1.779-2.175-2.559-3.868h3.016c1.612,2.804,4.276,4.207,7.995,4.207c3.77,0,6.295-1.245,7.579-3.73
					c0.555-1.071,0.833-2.799,0.833-5.179v-1.112c-2.169,2.741-5.047,4.109-8.63,4.109c-1.973,0-3.83-0.486-5.576-1.458
					c-1.746-0.971-3.097-2.298-4.057-3.978c-0.959-1.681-1.44-3.518-1.44-5.516c0-2.011,0.497-3.876,1.489-5.595
					c0.993-1.719,2.365-3.082,4.117-4.088c1.751-1.005,3.599-1.508,5.546-1.508c3.279,0,6.129,1.436,8.55,4.306V208.105z
					 M579.079,210.228c-1.574,0-3.034,0.377-4.383,1.131c-1.349,0.754-2.409,1.806-3.175,3.155c-0.765,1.349-1.15,2.804-1.15,4.365
					c0,2.447,0.819,4.432,2.46,5.953c1.599,1.494,3.63,2.241,6.09,2.241c2.54,0,4.591-0.761,6.153-2.283
					c1.559-1.52,2.339-3.543,2.339-6.07c0-3.373-1.368-5.833-4.106-7.381C581.997,210.599,580.587,210.228,579.079,210.228"/>
			</g>
		</g>
	</g>
</g>
</svg>
