<?xml version="1.0" encoding="iso-8859-1"?>
<!-- Generator: Adobe Illustrator 18.1.1, SVG Export Plug-In . SVG Version: 6.00 Build 0)  -->
<svg version="1.1" xmlns="http://www.w3.org/2000/svg" xmlns:xlink="http://www.w3.org/1999/xlink" x="0px" y="0px"
	 viewBox="0 0 595.28 260.79" style="enable-background:new 0 0 595.28 260.79;" xml:space="preserve">
<g id="Xwiki">
	<g style="display:inline;">
		<path style="fill:#FF5000;" d="M238.972,60.641c1.764-4.963,5.075-6.435,9.928-6.435c4.854,0,8.165,1.471,9.929,6.435
			l36.183,105.725h0.444l20.519-104.62c1.103-5.332,4.632-7.539,10.589-7.539c5.518,0,8.827,3.31,8.827,7.355
			c0,2.023-0.219,4.413-1.104,8.274l-23.827,106.827c-1.326,5.7-4.194,10.664-13.902,10.664c-7.502,0-12.135-1.655-15.224-10.664
			l-32.212-95.978h-0.442l-32.212,95.978c-3.089,9.01-7.724,10.664-15.224,10.664c-9.709,0-12.577-4.964-13.9-10.664L163.514,69.835
			c-0.883-3.861-1.105-6.251-1.105-8.274c0-4.045,3.31-7.355,8.826-7.355c5.957,0,9.488,2.207,10.591,7.539l20.518,104.62h0.443
			L238.972,60.641L238.972,60.641z"/>
		<path style="fill:#FF5000;" d="M373.121,178.683c0,5.334-3.753,8.644-9.71,8.644c-5.958,0-9.709-3.309-9.709-8.644V62.848
			c0-5.331,3.751-8.641,9.709-8.641c5.957,0,9.71,3.31,9.71,8.641V178.683L373.121,178.683z"/>
		<path style="fill:#FF5000;" d="M418.13,178.683c0,5.334-3.75,8.644-9.709,8.644c-5.956,0-9.708-3.309-9.708-8.644V62.848
			c0-5.331,3.752-8.641,9.708-8.641c5.959,0,9.709,3.31,9.709,8.641v47.806l67.295-51.299c3.528-2.758,6.619-5.149,10.59-5.149
			c4.856,0,8.385,2.758,8.385,6.988c0,4.229-1.765,5.699-3.972,7.354l-64.426,48.358l70.384,56.63
			c3.088,2.391,3.97,4.229,3.97,6.619c0,3.863-4.191,7.172-9.485,7.172c-2.868,0-5.519-0.369-9.489-3.495l-73.252-59.94V178.683
			L418.13,178.683z"/>
		<path style="fill:#FF5000;" d="M544.773,178.683c0,5.334-3.751,8.644-9.711,8.644c-5.955,0-9.706-3.309-9.706-8.644V62.848
			c0-5.331,3.751-8.641,9.706-8.641c5.96,0,9.711,3.31,9.711,8.641V178.683L544.773,178.683z"/>
		<path style="fill:#0086CB;" d="M28.119,127.332c2.902,0,5.256-2.353,5.256-5.257l0,0c0-2.902-2.354-5.26-5.256-5.26H5.256
			c-2.903,0-5.256,2.358-5.256,5.26l0,0c0,2.905,2.354,5.257,5.256,5.257H28.119L28.119,127.332z"/>
		<path style="fill:#E2001A;" d="M69.799,169.014c0-2.9,2.356-5.258,5.256-5.258l0,0c2.905,0,5.259,2.357,5.259,5.258v22.862
			c0,2.902-2.354,5.258-5.259,5.258l0,0c-2.9,0-5.256-2.356-5.256-5.258V169.014L69.799,169.014z"/>
		<path style="fill:#97BF0D;" d="M69.799,52.272c0-2.902,2.356-5.254,5.256-5.254l0,0c2.905,0,5.259,2.352,5.259,5.254v22.862
			c0,2.904-2.354,5.256-5.259,5.256l0,0c-2.9,0-5.256-2.353-5.256-5.256V52.272L69.799,52.272z"/>
		<path style="fill:#646567;" d="M87.531,121.775l44.187-51.348c3.38-3.928,2.934-9.853-0.993-13.232
			c-3.927-3.381-9.851-2.937-13.232,0.994l-42.34,49.203l-42.34-49.203c-3.381-3.931-9.303-4.374-13.234-0.994
			c-3.929,3.379-4.373,9.304-0.992,13.232l44.188,51.348l-44.184,51.344c-3.381,3.928-2.94,9.852,0.989,13.234
			c3.93,3.378,9.852,2.933,13.234-0.994l42.34-49.201l42.338,49.201c3.382,3.927,9.307,4.372,13.234,0.994
			c3.927-3.382,4.37-9.306,0.989-13.234L87.531,121.775L87.531,121.775z"/>
		<path style="fill:#FF5000;" d="M144.246,127.449c2.903,0,5.257-2.354,5.257-5.257l0,0c0-2.903-2.354-5.26-5.257-5.26h-22.862
			c-2.903,0-5.259,2.358-5.259,5.26l0,0c0,2.904,2.356,5.257,5.259,5.257H144.246L144.246,127.449z"/>
		<polygon style="fill:#646567;" points="571.139,56.554 566.034,56.554 566.034,55.122 578.284,55.122 578.284,56.554 
			573.18,56.554 573.18,67.891 571.139,67.891 571.139,56.554 		"/>
		<polygon style="fill:#646567;" points="580.023,55.122 582.811,55.122 587.638,65.852 592.488,55.122 595.28,55.122 
			595.28,67.891 593.347,67.891 593.347,57.269 593.305,57.269 588.52,67.891 586.783,67.891 581.996,57.269 581.953,57.269 
			581.953,67.891 580.023,67.891 580.023,55.122 		"/>
	</g>
</g>
</svg>
